<?xml version="1.0" encoding="UTF-8"?>
<!DOCTYPE svg PUBLIC "-//W3C//DTD SVG 1.1//EN" "http://www.w3.org/Graphics/SVG/1.1/DTD/svg11.dtd">
<svg xmlns="http://www.w3.org/2000/svg" xml:space="preserve" width="60" height="35" version="1.1" style="shape-rendering:geometricPrecision; text-rendering:geometricPrecision; image-rendering:optimizeQuality; fill-rule:evenodd; clip-rule:evenodd"
viewBox="0 0 1345.33 612.97"
 xmlns:xlink="http://www.w3.org/1999/xlink"
 xmlns:xodm="http://www.corel.com/coreldraw/odm/2003">
 <defs>
  <style type="text/css">
   <![CDATA[
    .fil0 {fill:white;}
    .fil1 {fill:white;}
   ]]>
  </style>
 </defs>
 <g id="Camada_x0020_1_0">
  <metadata id="CorelCorpID_0Corel-Layer"/>
  <path class="fil0" d="M551.73 447.43l123.51 20.73 -4.88 14c-7.36,21.1 -16.9,39.7 -28.59,55.81 -11.88,16.38 -25.95,30.21 -42.16,41.49l-0.05 0c-16.27,11.21 -34.53,19.61 -54.75,25.2 -20.03,5.53 -41.86,8.31 -65.47,8.31 -37.58,0 -70.46,-6.22 -98.62,-18.67 -28.55,-12.62 -52.08,-31.56 -70.55,-56.81l-0.05 -0.1c-14.46,-20.03 -25.3,-42.58 -32.49,-67.66 -7.13,-24.87 -10.71,-52.2 -10.71,-82.03 0,-35.41 4.7,-67.21 14.08,-95.37 9.51,-28.55 23.77,-53.16 42.77,-73.78 19.02,-20.72 40.63,-36.26 64.8,-46.64 24.18,-10.38 50.78,-15.57 79.78,-15.57 32.24,0 61.23,5.39 86.96,16.18 25.95,10.88 48.45,27.19 67.49,48.93 19,21.77 32.98,49.1 41.93,81.98 8.74,32.1 12.71,69.7 11.89,112.81l-0.23 12.34 -271.57 0c1.01,9.68 2.9,18.5 5.68,26.47 3.8,10.91 9.32,20.24 16.55,27.98l0 0.05c7.13,7.7 15.13,13.46 23.94,17.27 8.78,3.79 18.6,5.69 29.42,5.69 14.18,0 25.87,-3.71 35.09,-11.12l0.05 -0.05c4.64,-3.69 8.75,-8.59 12.33,-14.7 3.87,-6.61 7.14,-14.55 9.82,-23.84l3.1 -10.75 10.95 1.84zm4.3 -98.14c-0.8,-31.66 -8.87,-55.77 -24.37,-72.19 -15.5,-16.56 -34.31,-24.77 -56.56,-24.77 -23.71,0 -43.32,8.74 -58.81,26.1 -15.5,17.35 -23.05,41.06 -22.78,70.87l162.53 0z"/>
  <polygon class="fil0" points="631.79,582.16 773.51,379.56 624.05,169.42 786.45,169.42 851.89,271.28 921.33,169.5 1042.87,168.96 903.18,374.05 903.54,500.59 1017.91,500 1090.77,601.84 928.74,601.84 851.6,485.71 774.83,601.84 618.02,601.84 "/>
  <path class="fil0" d="M266.31 168.81l1.82 100.98 -78.39 0 -0.36 154.03c-0.04,17.37 0.13,31.21 0.5,41.5 0.34,9.65 0.81,15.56 1.38,17.74 0.44,1.67 1.12,3.18 2.06,4.52 0.98,1.4 2.3,2.71 3.99,3.93l0.01 -0.01c1.65,1.18 3.49,2.07 5.52,2.68 2.16,0.64 4.65,0.97 7.46,0.97 4.5,0 10.15,-0.8 16.97,-2.42 7.38,-1.75 15.83,-4.37 25.35,-7.85l12.98 -4.74 11.91 110.42 -7.39 3.17c-13.94,5.98 -28.79,10.47 -44.57,13.46 -15.73,2.98 -32.27,4.47 -49.62,4.47 -21.97,0 -41.8,-3.75 -59.64,-11.24 -8.97,-3.77 -16.84,-8.18 -23.62,-13.22 -7.04,-5.23 -12.8,-11.07 -17.26,-17.48l0.03 -0.02c-4.49,-6.41 -8.19,-13.73 -11.15,-22 -2.84,-7.92 -5.06,-16.94 -6.71,-27.08l-0.03 0c-1.26,-7.09 -2.23,-17.86 -2.88,-32.31 -0.59,-13.35 -0.89,-30.13 -0.85,-50.35l0.36 -168.16 -52.17 0 -2.02 -111.68 52.75 0 1.17 -77.93 135.63 -80.19 -1.31 158.12 77.88 0 0.19 10.69z"/>
  <path class="fil1" d="M1145.8 600.83l0.16 -113.19 -229.54 0.08 0.09 -110.08 249.22 -366.61 109.62 0.16 0.02 357.18 69.95 -0.04 -0.07 119.29 -69.86 -0.01 0 113.06 -129.59 0.16zm12.64 -219.95l0 -191.95 -128.48 191.95 128.48 -0z"/>
 </g>
</svg>
