<?xml version="1.0" encoding="UTF-8"?>
<!DOCTYPE svg PUBLIC "-//W3C//DTD SVG 1.1//EN" "http://www.w3.org/Graphics/SVG/1.1/DTD/svg11.dtd">
<!-- Creator: CorelDRAW -->
<svg xmlns="http://www.w3.org/2000/svg" xml:space="preserve" width="48px" height="48px" version="1.1" style="shape-rendering:geometricPrecision; text-rendering:geometricPrecision; image-rendering:optimizeQuality; fill-rule:evenodd; clip-rule:evenodd"
viewBox="0 0 856.33 390.19"
 xmlns:xlink="http://www.w3.org/1999/xlink"
 xmlns:xodm="http://www.corel.com/coreldraw/odm/2003">
 <defs>
  <style type="text/css">
   <![CDATA[
    .fil1 {fill:white}
    .fil0 {fill:url(#id0);fill-rule:nonzero}
   ]]>
  </style>
  <linearGradient id="id0" gradientUnits="userSpaceOnUse" x1="947.28" y1="144.98" x2="733.54" y2="250.99">
   <stop offset="0" style="stop-opacity:1; stop-color:white"/>
   <stop offset="0.25098" style="stop-opacity:1; stop-color:gray"/>
   <stop offset="1" style="stop-opacity:1; stop-color:black"/>
  </linearGradient>
 </defs>
 <g id="Camada_x0020_1_0">
  <metadata id="CorelCorpID_0Corel-Layer"/>
  <path class="fil0" d="M737.59 374.38l0 -72.1 -146.21 0 0 -59.84 155.06 -228.08 57.75 0 0 227.83 44.56 0 0 60.09 -44.56 0 0 72.1 -66.6 0zm0 -132.19l0 -122.43 -81.95 122.43 81.95 0z"/>
  <path class="fil1" d="M351.21 284.81l78.62 13.2 -3.11 8.91c-4.69,13.43 -10.76,25.27 -18.2,35.53 -7.56,10.43 -16.52,19.23 -26.84,26.41l-0.03 0c-10.36,7.13 -21.98,12.49 -34.85,16.04 -12.75,3.52 -26.65,5.29 -41.67,5.29 -23.92,0 -44.85,-3.96 -62.78,-11.89 -18.18,-8.04 -33.15,-20.09 -44.91,-36.16l-0.03 -0.06c-9.21,-12.75 -16.1,-27.11 -20.68,-43.07 -4.54,-15.83 -6.81,-33.23 -6.81,-52.22 0,-22.54 2.99,-42.78 8.96,-60.71 6.05,-18.18 15.13,-33.84 27.22,-46.96 12.11,-13.19 25.86,-23.08 41.25,-29.69 15.39,-6.61 32.32,-9.91 50.79,-9.91 20.52,0 38.97,3.43 55.35,10.3 16.52,6.92 30.84,17.31 42.96,31.15 12.09,13.86 20.99,31.25 26.69,52.18 5.56,20.43 8.09,44.37 7.57,71.81l-0.15 7.85 -172.87 0c0.64,6.16 1.85,11.78 3.61,16.85 2.42,6.94 5.93,12.88 10.53,17.81l0 0.03c4.54,4.9 9.63,8.57 15.24,10.99 5.59,2.42 11.84,3.62 18.73,3.62 9.03,0 16.47,-2.36 22.33,-7.08l0.03 -0.03c2.95,-2.35 5.57,-5.47 7.85,-9.36 2.47,-4.21 4.55,-9.26 6.25,-15.17l1.97 -6.84 6.97 1.17zm-1.31 7.85l69.31 11.64c-8.85,25.38 -22.93,44.69 -42.08,58.01 -19.22,13.24 -43.26,19.9 -72.01,19.9 -45.62,0 -79.43,-14.93 -101.27,-44.77 -17.29,-23.95 -25.97,-54.13 -25.97,-90.64 0,-43.51 11.38,-77.66 34.07,-102.28 22.68,-24.71 51.43,-37.02 86.17,-37.02 38.96,0 69.73,12.9 92.33,38.7 22.51,25.8 33.31,65.35 32.29,118.64l-173.53 0c0.51,20.57 6.07,36.6 16.78,48.06 10.62,11.47 23.95,17.2 39.8,17.2 10.88,0 19.98,-2.95 27.32,-8.85 7.42,-5.9 12.99,-15.43 16.78,-28.58zm4.05 -70.32c-0.51,-20.15 -5.65,-35.5 -15.51,-45.95 -9.87,-10.54 -21.84,-15.77 -36.01,-15.77 -15.09,0 -27.57,5.56 -37.44,16.61 -9.87,11.05 -14.67,26.14 -14.5,45.11l103.46 0zm-8.45 -7.98c-0.61,-5.93 -1.72,-11.31 -3.34,-16.11 -2.21,-6.54 -5.38,-12.02 -9.52,-16.41l0 -0.03c-4.17,-4.45 -8.75,-7.77 -13.77,-9.97 -4.95,-2.17 -10.43,-3.25 -16.44,-3.25 -6.43,0 -12.24,1.16 -17.45,3.47 -5.22,2.32 -9.91,5.81 -14.07,10.46 -4.16,4.66 -7.28,10.23 -9.35,16.68 -1.48,4.6 -2.43,9.66 -2.87,15.16l86.8 0z"/>
  <path class="fil1" d="M402.17 370.57l90.21 -128.97 -95.14 -133.76 103.38 0 41.66 64.84 44.21 -64.79 96.87 -0.33 -91.66 134.57 -0.22 60.24 46.46 0.11 56.3 80.63 -103.04 0 -49.1 -73.92 -48.87 73.92 -99.82 0 8.76 -12.53zm6.51 4.55l93.43 -133.56 -89.43 -125.74 83.6 0 45.8 71.28 48.63 -71.28 77.57 -0.27 -84.51 124.08 -0.26 70.66 50.29 0.12 45.18 64.71 -83.52 0 -53.38 -80.35 -53.13 80.35 -80.27 0z"/>
  <path class="fil1" d="M169.52 107.46l1.16 64.28 -49.9 0 -0.23 98.05c-0.03,11.06 0.08,19.86 0.32,26.41 0.22,6.14 0.51,9.9 0.88,11.29 0.28,1.06 0.71,2.02 1.31,2.88 0.62,0.89 1.47,1.72 2.54,2.5l0 -0.01c1.05,0.75 2.22,1.32 3.52,1.7 1.38,0.41 2.96,0.62 4.75,0.62 2.86,0 6.46,-0.51 10.8,-1.54 4.7,-1.12 10.07,-2.78 16.14,-5l8.26 -3.02 7.58 70.29 -4.7 2.02c-8.87,3.81 -18.33,6.67 -28.37,8.57 -10.01,1.9 -20.54,2.85 -31.58,2.85 -13.98,0 -26.61,-2.39 -37.96,-7.16 -5.71,-2.4 -10.72,-5.21 -15.04,-8.42 -4.48,-3.33 -8.14,-7.04 -10.99,-11.13l0.02 -0.01c-2.85,-4.08 -5.21,-8.74 -7.1,-14 -1.81,-5.04 -3.22,-10.78 -4.27,-17.24l-0.02 0c-0.8,-4.51 -1.42,-11.37 -1.83,-20.57 -0.38,-8.5 -0.57,-19.18 -0.54,-32.05l0.23 -107.05 -33.21 -0 -1.28 -71.09 33.58 0 0.75 -49.61 86.33 -51.04 -0.83 100.65 49.58 0 0.12 6.81zm-6.89 0.11l1.03 57.26 -49.76 0 -0.24 104.96c-0.05,22.58 0.44,35.73 1.41,39.43 0.97,3.7 3.09,6.79 6.53,9.26 3.35,2.38 7.41,3.62 12.26,3.62 6.79,0 16.5,-2.29 29.29,-6.97l6.09 56.46c-16.85,7.23 -35.91,10.85 -57.26,10.85 -13.06,0 -24.79,-2.21 -35.29,-6.62 -10.5,-4.41 -18.17,-10.15 -23.03,-17.11 -4.94,-7.06 -8.29,-16.5 -10.23,-28.5 -1.5,-8.47 -2.35,-25.58 -2.29,-51.43l0.24 -113.96 -33.35 0 -1.03 -57.26 33.35 0 0.79 -52.54 72.52 -42.88 -0.79 95.42 49.76 0z"/>
  <path class="fil1" d="M729.44 374.38l0 -63.98 -145.92 -0 0 -70.09c52.85,-77.73 105.69,-155.47 158.54,-233.2l69.79 0 0 227.37 44.47 0 0 75.92 -44.47 0 0 71.96 -82.42 0 0 -7.98zm7.98 0l0 -71.96 -145.92 0 0 -59.72 154.74 -227.62 57.63 0 0 227.37 44.47 0 0 59.97 -44.47 0 0 71.96 -66.46 0zm0 -131.93l0 -122.18 -81.79 122.18 81.79 0zm-7.98 -7.98l0 -87.99 -58.9 87.99 58.9 0z"/>
 </g>
</svg>
